<svg xmlns="http://www.w3.org/2000/svg" xmlns:xlink="http://www.w3.org/1999/xlink" id="svg8" width="447.214" height="223.607" viewBox="0 0 10080 5040"><defs id="defs1"><path id="a" d="m0-360 69.421 215.845 212.038-80.301L155.99-35.603l194.985 115.71-225.881 19.651 31.105 224.59L0 160l-156.198 164.349 31.105-224.59-225.881-19.651 194.986-115.711-125.471-188.853 212.038 80.301z"/><path id="b" d="M0-210 54.86-75.508l144.862 10.614L88.765 28.842l34.67 141.052L0 93.334l-123.435 76.56 34.67-141.052-110.957-93.736L-54.86-75.508z"/></defs><path id="path1" fill="green" d="M0 0h10080v5040H0z" style="fill:#19472c;fill-opacity:1"/><circle id="circle1" cx="5040" cy="2520" r="1050" fill="#ffe000" style="fill:#f8c700;fill-opacity:1"/><circle id="circle2" cx="5367.4" cy="2520" r="864" fill="green" style="fill:#19472c;fill-opacity:1"/><circle id="circle3" cx="1730" cy="1470" r="1100" fill="#ffe000" style="fill:#f8c700;fill-opacity:1"/><g id="g8" fill="#ffe000" style="fill:#f8c700;fill-opacity:1"><use xlink:href="#a" id="use4" x="7560" y="4200" style="fill:#f8c700;fill-opacity:1"/><use xlink:href="#a" id="use5" x="6300" y="2205" style="fill:#f8c700;fill-opacity:1"/><use xlink:href="#a" id="use6" x="7560" y="840" style="fill:#f8c700;fill-opacity:1"/><use xlink:href="#a" id="use7" x="8680" y="1869" style="fill:#f8c700;fill-opacity:1"/><use xlink:href="#b" id="use8" x="8064" y="2730" style="fill:#f8c700;fill-opacity:1"/></g><path id="path11" fill="#8c4200" stroke="#000" stroke-width="2.06" d="M1463.363 2304.389c-17.926 55.783-36.833 74.789-109.519 89.105-71.705 14.316-181.223-41.96-113.44-96.51 64.703-50.847 132.767-63.805 190.748-109.592 89.771-71.827 213.015-220.418 271.556-360.864 64.002-153.65 52.938-585.971 49.997-805.032 0-2.468-7.703-4.072-8.683-5.06-4.201-4.936-8.123 1.481-1.54-30.606 1.68-8.269 9.803-16.785 9.803-25.054-.14-14.81 63.443 16.168 80.108 42.702 3.922 6.047-12.184 23.325-12.184 26.657-2.1 210.175 25.909 625.094-43.275 812.93-42.715 116.257-120.863 206.103-191.448 289.16-42.435 53.192-103.636 110.703-122.123 172.164z" style="fill:#812400;fill-opacity:1;stroke:#812400;stroke-opacity:1"/><path id="path12" fill="#109421" stroke="#000" stroke-width="2.06" d="M2420.6 959.419c-4.62 4.936-3.92 26.658-3.92 26.658-3.642 1.727-63.583-41.22-63.583-39.246 0 9.009-1.4 27.644-1.4 27.644s-62.043-47.514-64.563-42.578c-2.801 5.678.28 33.322.28 33.322l-48.878-43.442c-5.461-4.69-4.621 6.048-5.041 23.202-.14 3.086-67.644-40.11-71.705-40.85-8.824-1.604-11.485 22.462-11.065 28.386.42 4.442-62.321-28.756-59.52-24.436l-4.622 25.546c-17.506-1.85-59.1-14.44-84.03-11.107-8.123.987-7.702 4.196-.56 6.664 120.583 39.37 213.435 98.732 267.494 181.42 18.347 28.261 23.949 52.82 19.047 58.991 0 0-21.568-37.64-46.076-43.565-3.221-.74-5.462 24.19-8.823 22.708 0 0-18.487-37.64-31.791-51.587-3.642-3.702-9.524 19.747-13.445 16.291 0 0-9.524-25.176-28.43-42.825-2.661-2.468-7.563 23.943-10.504 21.721-19.607-14.563-37.813-50.97-45.096-53.685-5.182-3.209-6.022 30.237-10.924 27.398 0 0-27.87-45.17-44.395-53.315-10.784-5.307-10.364 24.683-10.364 24.683-21.147-16.908-44.536-44.923-55.6-57.018-5.182-5.677-2.38 36.778-7.702 38.505-7.003 2.099-52.799-32.58-57.84-33.321-3.502-.37-7.423 9.873 1.4 18.265l56.58 52.575c-10.924 1.728-15.126-.74-22.828.863-23.248 4.937 43.415 35.79 42.155 41.468 0 0-32.072-.494-21.288 4.566 7.703 3.702 50.138 47.638 50.138 46.034 0-.74-21.288.37-21.148 5.306.14 9.133 35.153 56.154 35.573 55.907 1.82-1.48-18.907-1.975-21.708 2.592-5.182 8.639 35.993 46.65 28.01 53.068-1.12.987-23.528.37-33.472 2.098-4.761.864-18.206 69.112-14.845 66.397-5.608-28.233-13.518-56.074-23.668-83.305-5.602-11.6-23.669 17.649-25.07 15.057.701 0 3.642-41.59 1.121-60.597-.7-5.306-13.725 5.554-13.444.494.42-11.478 1.54-23.82-1.401-35.05-2.1-8.392-13.165 15.304-17.506 8.886 0 0 13.445-41.22 7.842-52.821-3.64-7.652-12.604 18.512-18.486 19.5 0 0 3.361-32.088-2.8-40.234l-18.627 16.044c-4.062-5.183-3.222-55.166-7.003-59.732-3.081-3.95-22.408 18.635-25.209 15.18-2.66-3.333 8.123-40.357 5.602-43.196-3.361-4.319-24.509 10.244-24.929 9.874-8.543-6.912-8.403-24.436-11.904-30.854-9.803-17.525-65.543-19.746-72.125-7.405-3.221 6.17-.98 13.946.28 23.449-.42.247-28.01 1.851-28.01.123 0 0 3.221 20.734 1.26 43.442-.28 3.086-27.87-.74-28.29 2.345-2.38 21.35 3.642 23.449 3.642 23.449-.28 1.48-18.627-2.468-18.907-.74-1.206 12.5 2.449 24.99 10.364 35.42 1.4 1.727-26.19-1.729-26.61.37-3.36 16.043-3.921 28.879-.56 51.587.28 1.727-26.89-16.044-27.31-14.193-4.2 19.006.7 39.616-1.82 59.486-.56 4.566-17.927-13.7-19.607-8.393-1.4 5.184 3.921 42.949 1.4 45.17 0 0-29.27-1.234-31.79.74-23.109 17.525-18.767 48.132-18.767 48.132-6.303-3.825-3.922-40.726 2.52-74.295.7-3.58-22.408-2.222-21.707-5.554 0 0 25.209-12.341 33.612-46.527 1.82-7.281-24.369-5.8-24.369-5.8 7.283-13.453 20.027-16.044 30.81-29.003 3.502-4.196-27.169-6.17-27.169-7.405 0-12.835 25.91-19.006 39.354-32.458 5.742-5.677-28.01-6.047-28.01-6.047 9.804-11.107 42.575-16.044 59.241-30.607 8.963-8.022-33.192-15.92-32.631-17.278 4.621-11.724 44.255-15.427 63.582-28.756 3.922-2.714-25.209-11.97-25.209-11.97 2.941-4.937 66.384-38.63 34.172-35.544-13.725 1.234-41.314 16.908-43.415 14.563 0 0 1.12-19.746-1.68-21.968-10.645-8.886-47.197 37.642-59.522 35.79 0 0-4.621-33.321-10.223-34.309-13.445-1.974-29.69 48.625-42.855 48.625-1.821 0-2.801-29.249-9.524-30.853-7.703-1.851-16.386 32.828-26.049 40.48-8.963 7.034-9.103-27.151-14.425-20.61-8.963 10.49-11.204 32.334-23.388 41.96-7.983 6.171-9.383-30.113-18.206-25.3-10.364 5.678-7.983 24.436-19.467 33.693-5.602 4.443-9.244-23.943-15.406-19.746-5.602 3.702-9.383 38.258-15.405 43.811-7.563 7.035-16.386-18.265-24.229-14.315-5.602 2.961-4.341 32.951-9.663 39.492-10.784 13.329-16.386-16.167-23.529-11.6-5.041 3.084-15.825 37.517-20.307 40.232-9.943 6.17-15.405-15.673-23.108-12.588-5.602 2.221-16.666 46.65-21.287 45.54-2.801-.74-10.364-101.323 37.673-143.778 78.008-69.112 274.637-119.218 273.236-126.87-3.08-15.303-31.51-13.575-51.398-9.873-3.501.494-1.68-27.151-2.1-27.151-17.787-.494-33.612 8.022-50.699 16.29-5.181 2.716 10.784-27.644 5.182-25.053-21.847 10.244-46.216 13.206-60.781 25.547-3.922 3.209 4.341-23.325 4.341-23.325-10.783-2.098-32.211 10.49-40.754 22.461-4.201 5.8.28-30.977-2.94-24.436 0 0-38.095 10.367-42.016 23.202 0 0-3.22-23.325-8.403-22.091-15.125 3.209-28.57 23.942-40.474 27.028 0 0 5.042-20.857 1.12-20.117-28.57 5.924-59.66 20.117-59.66 20.117 16.105-32.582 77.307-66.644 184.864-75.777 56.105-3.473 112.482-.652 167.78 8.392 55.6 10.367 99.435 16.291 90.472 9.257-36.693-29.126-96.214-32.705-112.6-39.493-11.624-4.813 39.494-20.734 29.41-22.955-10.223-1.975-55.88-4.937-55.88-4.937-9.803-6.294 33.192-18.512 26.75-27.644-12.884-18.142-89.071-1.605-95.654-8.64-2.1-2.221 32.772-18.882 31.371-21.35-5.602-9.133-73.386 6.911-75.066-1.234 0 0 20.587-12.342 35.292-22.462 1.68-1.234-60.641-14.81-60.641-14.81 7.712-4.6 16.099-8.253 24.929-10.86 13.164-4.073-54.62-18.265-54.62-18.265 85.85-31.718 308.81 58.375 353.065 151.923 11.484 22.338 11.904-1.975 9.383-20.857-2.24-20.364-5.462-38.259-2.8-56.77.98-5.554 18.206 14.686 19.606 9.255 4.342-19.746-8.823-41.59-2.8-63.682 1.96-7.404 25.068 21.845 28.009 14.44 8.543-20.363-6.162-48.996-.28-77.134 2.38-10.984 24.229 23.449 31.511 13.699 8.543-11.354 4.902-53.562 8.963-59.98 3.221-5.183 22.688 20.24 24.369 15.427 26.329-77.38-8.683-87.007 42.015-43.442 1.68 1.605 12.884-45.663 14.845-44.182 20.727 35.79 54.62-25.423 66.383-19.746 8.683 4.32-23.808 28.138-24.088 38.752-.14 5.183 29.83 5.554 29.83 5.554-.7 8.762-57 33.568-58.82 43.195-1.401 8.022 39.773 6.17 39.773 6.17-1.26 10.737-48.176 20.98-50.697 32.582-1.4 6.17 21.987 7.651 21.147 14.192-1.26 9.874-45.376 29.373-46.776 39.493-.98 6.911 28.15 9.873 28.85 16.29.84 7.9-58.54 34.433-58.68 41.962 0 10.366 23.807 4.936 34.451 10.243 15.266 7.405-48.597 37.518-51.398 46.157-2.1 7.405 25.63.864 26.61 7.652 1.12 9.009-31.371 22.585-38.794 38.011-7.423 15.18.14 19.13 10.784 13.082 21.427-12.218 107.698-86.143 130.666-105.89 46.788-37.204 106.55-59.27 169.46-62.57 7.002 1.727-36.693 26.657-36.974 35.666 0 2.345 19.607 5.8 18.767 6.418-12.044 9.873-49.717 21.35-49.717 21.35l10.783 15.674c-2.52 4.567-20.307 5.8-48.737 13.452 0 0 21.288 10.614 19.607 11.601-14.985 9.873-44.256 16.908-44.256 16.908l28.85 7.899c1.681 4.442-64.982 25.917-64.982 25.917s20.867 14.562 19.887 15.303c-5.042 4.073-53.92 13.205-53.92 13.205-.84.617 34.453 9.503 34.313 9.75-12.885 10.367-48.317 13.7-56.58 30.854 0 0-4.762 9.75 9.243 7.898 55.04-16.167 140.33-49.489 305.728-36.407 169.18 17.772 298.025 136.373 295.784 148.097 0 0-60.501-34.926-66.803-27.768z" style="fill:#19472c;fill-opacity:1;stroke:#19472c;stroke-opacity:1"/></svg>