<svg xmlns="http://www.w3.org/2000/svg" id="Layer_1" width="800" height="533" data-name="Layer 1" viewBox="0 0 800 533"><defs id="defs1"><style id="style1">.cls-2,.cls-3{fill:#fff;stroke-width:0}.cls-3{fill:#ed2939}</style></defs><path id="rect1" d="M0 0h800v533H0z" class="cls-3" style="fill:#cf0921;fill-opacity:1"/><g id="g4"><path id="rect2" d="M0 0h395v263.33H0z" class="cls-3" style="fill:#cf0921;fill-opacity:1"/><path id="rect3" d="M0 0h263.33v263.33H0z" class="cls-2"/><path id="rect4" d="M0 0h131.67v263.33H0z" style="stroke-width:0;fill:#032153;fill-opacity:1"/></g><path id="polyline4" d="M0 263.33h395V0" style="fill:none;stroke:#fff;stroke-miterlimit:10;stroke-width:5px"/><path id="polygon4" d="m639.48 220.32 9.92 30.52h32.1l-25.97 18.87 9.92 30.53-25.97-18.87-25.97 18.87 9.92-30.53-25.97-18.87h32.1z" class="cls-2"/><path id="path4" d="M536.9 269.83c0-54.49 44.17-98.66 98.66-98.66 12.33 0 24.12 2.27 35 6.4-19.49-14.86-43.83-23.69-70.23-23.69-64.04 0-115.95 51.91-115.95 115.95s51.91 115.95 115.95 115.95c26.4 0 50.74-8.83 70.23-23.69a98.4 98.4 0 0 1-35 6.4c-54.49 0-98.66-44.17-98.66-98.66" class="cls-2"/></svg>